ac2e8f528dae4e4d610fa3517d2c94fb *tests/data/fate/h264_redundant_pps-mov.h264
187284 tests/data/fate/h264_redundant_pps-mov.h264
#tb 0: 1001/24000
#media_type 0: video
#codec_id 0: rawvideo
#dimensions 0: 640x360
#sar 0: 1/1
0,          0,          0,        1,   345600, 0xc40ffa02
0,          1,          1,        1,   345600, 0x346acaba
0,          2,          2,        1,   345600, 0x26f3de5d
0,          3,          3,        1,   345600, 0xacf384e1
0,          4,          4,        1,   345600, 0xd7dc8e0b
0,          5,          5,        1,   345600, 0xd7dc8e0b
0,          6,          6,        1,   345600, 0x47f99430
0,          7,          7,        1,   345600, 0x00259c5a
0,          8,          8,        1,   345600, 0xec659aa2
0,          9,          9,        1,   345600, 0xec659aa2
0,         10,         10,        1,   345600, 0x84fef765
0,         11,         11,        1,   345600, 0xcbeecbe4
0,         12,         12,        1,   345600, 0x9386982e
0,         13,         13,        1,   345600, 0x682ccf66
0,         14,         14,        1,   345600, 0x89d10278
0,         15,         15,        1,   345600, 0x407272a3
0,         16,         16,        1,   345600, 0x32e0b287
0,         17,         17,        1,   345600, 0x709ccfe5
0,         18,         18,        1,   345600, 0x00dcbebc
0,         19,         19,        1,   345600, 0x61b7aa83
0,         20,         20,        1,   345600, 0x03c7c404
0,         21,         21,        1,   345600, 0x9b794d4c
0,         22,         22,        1,   345600, 0xb090b3f0
0,         23,         23,        1,   345600, 0xdb596340
0,         24,         24,        1,   345600, 0x031f4ba8
0,         25,         25,        1,   345600, 0xef484d42
0,         26,         26,        1,   345600, 0xa2814cec
0,         27,         27,        1,   345600, 0x5432765c
0,         28,         28,        1,   345600, 0xef5fd507
0,         29,         29,        1,   345600, 0x13b2138d
0,         30,         30,        1,   345600, 0x29f24795
0,         31,         31,        1,   345600, 0x6dce96e1
0,         32,         32,        1,   345600, 0xb0cdf793
0,         33,         33,        1,   345600, 0x1b921fb6
0,         34,         34,        1,   345600, 0xcc446384
0,         35,         35,        1,   345600, 0x784689e7
0,         36,         36,        1,   345600, 0xfaf5ac7e
0,         37,         37,        1,   345600, 0x6ce2c6b5
0,         38,         38,        1,   345600, 0xcb9408ad
0,         39,         39,        1,   345600, 0x4f40082d
0,         40,         40,        1,   345600, 0x9c039eb7
0,         41,         41,        1,   345600, 0xb271ec7d
0,         42,         42,        1,   345600, 0x31d2af2c
0,         43,         43,        1,   345600, 0xe187adc4
0,         44,         44,        1,   345600, 0xec28b3cc
0,         45,         45,        1,   345600, 0x5596b34c
0,         46,         46,        1,   345600, 0xb75f475c
0,         47,         47,        1,   345600, 0x888f311c
0,         48,         48,        1,   345600, 0xedab720f
0,         49,         49,        1,   345600, 0xbf75fa40
0,         50,         50,        1,   345600, 0x13bb37d7
0,         51,         51,        1,   345600, 0xbc6aeded
0,         52,         52,        1,   345600, 0xf6a6478a
0,         53,         53,        1,   345600, 0x46d4e723
0,         54,         54,        1,   345600, 0x1263e5e3
0,         55,         55,        1,   345600, 0x6d3fc449
0,         56,         56,        1,   345600, 0xc218c2c9
0,         57,         57,        1,   345600, 0x12ef8744
0,         58,         58,        1,   345600, 0xc073486e
0,         59,         59,        1,   345600, 0xa3403147
0,         60,         60,        1,   345600, 0x720a8c5b
0,         61,         61,        1,   345600, 0x7a268f12
0,         62,         62,        1,   345600, 0xf311d147
0,         63,         63,        1,   345600, 0x5cc12e78
0,         64,         64,        1,   345600, 0xf09ecd59
0,         65,         65,        1,   345600, 0x0e3b46c3
0,         66,         66,        1,   345600, 0x80786a01
0,         67,         67,        1,   345600, 0x3edd6931
0,         68,         68,        1,   345600, 0x14e27291
0,         69,         69,        1,   345600, 0x12776fd1
0,         70,         70,        1,   345600, 0xa68cf46d
0,         71,         71,        1,   345600, 0x04f99d27
0,         72,         72,        1,   345600, 0x76618a97
0,         73,         73,        1,   345600, 0x7559dcae
0,         74,         74,        1,   345600, 0xc9f4d77f
0,         75,         75,        1,   345600, 0xe76fbad7
0,         76,         76,        1,   345600, 0x6efca571
0,         77,         77,        1,   345600, 0x0619a437
0,         78,         78,        1,   345600, 0x0b48a563
0,         79,         79,        1,   345600, 0x6ec1bae9
0,         80,         80,        1,   345600, 0xcce588aa
0,         81,         81,        1,   345600, 0xa003e269
0,         82,         82,        1,   345600, 0x6507ec83
0,         83,         83,        1,   345600, 0xa697ec03
0,         84,         84,        1,   345600, 0xb18a0ddd
0,         85,         85,        1,   345600, 0x96b74d36
0,         86,         86,        1,   345600, 0x6b6d5ebb
0,         87,         87,        1,   345600, 0x86a082c4
0,         88,         88,        1,   345600, 0x463ac3e6
0,         89,         89,        1,   345600, 0xac54e07e
0,         90,         90,        1,   345600, 0xdd32e5ce
0,         91,         91,        1,   345600, 0xc27b9140
0,         92,         92,        1,   345600, 0x70855f0b
0,         93,         93,        1,   345600, 0xad849d48
0,         94,         94,        1,   345600, 0x26f6bbba
0,         95,         95,        1,   345600, 0x4c01cc6c
0,         96,         96,        1,   345600, 0x2f6fdac5
0,         97,         97,        1,   345600, 0xb4d8f6d6
0,         98,         98,        1,   345600, 0x53aafc9f
0,         99,         99,        1,   345600, 0x53aafc9f
0,        100,        100,        1,   345600, 0xa016f90b
0,        101,        101,        1,   345600, 0x7a68ea8b
0,        102,        102,        1,   345600, 0x74cee980
0,        103,        103,        1,   345600, 0x16621888
0,        104,        104,        1,   345600, 0x16621888
0,        105,        105,        1,   345600, 0x4f6c5227
0,        106,        106,        1,   345600, 0x5d8343c2
0,        107,        107,        1,   345600, 0x4ea83d1a
